<?xml version="1.0" encoding="UTF-8" standalone="no"?>
<svg
   xmlns:dc="http://purl.org/dc/elements/1.1/"
   xmlns:cc="http://creativecommons.org/ns#"
   xmlns:rdf="http://www.w3.org/1999/02/22-rdf-syntax-ns#"
   xmlns:svg="http://www.w3.org/2000/svg"
   xmlns="http://www.w3.org/2000/svg"
   id="svg7207"
   version="1.1"
   viewBox="0 0 135.46666 135.46667"
   height="512"
   width="512">
  <defs
     id="defs7201" />
  <metadata
     id="metadata7204">
    <rdf:RDF>
      <cc:Work
         rdf:about="">
        <dc:format>image/svg+xml</dc:format>
        <dc:type
           rdf:resource="http://purl.org/dc/dcmitype/StillImage" />
        <dc:title></dc:title>
      </cc:Work>
    </rdf:RDF>
  </metadata>
  <g
     transform="translate(0,-161.53332)"
     id="layer1">
    <path
       d="m 82.203364,276.47289 h 3.941274 q 7.882522,0 10.247274,-2.885 2.421054,-2.81912 2.421054,-12.19484 v -10.8836 q 0,-10.22807 2.533664,-14.8832 2.53366,-4.65499 8.78337,-6.42526 -6.24971,-1.63908 -8.78337,-6.29421 -2.533664,-4.65485 -2.533664,-14.94865 v -10.8836 q 0,-9.31013 -2.421054,-12.12938 -2.364752,-2.88487 -10.247274,-2.88487 h -3.941274 v -14.75185 h 12.21792 q 12.274196,0 17.904576,5.76958 5.63036,5.70412 5.63036,18.358 v 13.44062 q 0,9.83475 3.04039,13.6374 3.0404,3.80266 11.03553,3.80266 h 3.43453 v 14.62094 h -3.43453 q -7.99513,0 -11.03553,3.86825 -3.04039,3.80265 -3.04039,13.63741 v 12.58828 q 0,12.65388 -5.63036,18.42359 -5.63038,5.76972 -17.904576,5.76972 h -12.21792 z m -28.940081,0 v 14.75199 H 41.045392 q -12.274213,0 -17.904582,-5.76972 -5.630369,-5.76971 -5.630369,-18.42359 v -12.58828 q 0,-9.83476 -3.040402,-13.63741 -3.040388,-3.86825 -11.0355266,-3.86825 H -1.6666667e-6 V 222.31669 H 3.4345124 q 7.9951386,0 11.0355266,-3.80266 3.040402,-3.80265 3.040402,-13.6374 v -13.44062 q 0,-12.65388 5.630369,-18.358 5.630369,-5.76958 17.904582,-5.76958 h 12.217891 v 14.75185 h -3.884964 q -7.9388,0 -10.359866,2.88487 -2.364756,2.81925 -2.364756,12.12938 v 10.8836 q 0,10.2938 -2.53367,14.94865 -2.533671,4.65513 -8.727067,6.29421 6.249705,1.77027 8.727067,6.42526 2.53367,4.65513 2.53367,14.8832 v 10.8836 q 0,9.37572 2.364756,12.19484 2.421066,2.885 10.359866,2.885 z"
       style="font-style:normal;font-variant:normal;font-weight:bold;font-stretch:normal;font-size:medium;line-height:125%;font-family:sans-serif;-inkscape-font-specification:'sans-serif Bold';letter-spacing:0px;word-spacing:0px;fill:#000000;fill-opacity:1;stroke:none;stroke-width:3.11079788px;stroke-linecap:butt;stroke-linejoin:miter;stroke-opacity:1"
       id="path7219" />
  </g>
</svg>
